<svg width="94" height="96" viewBox="0 0 94 96" fill="none" xmlns="http://www.w3.org/2000/svg">
<g filter="url(#filter0_f_8_440)">
<mask id="path-1-outside-1_8_440" maskUnits="userSpaceOnUse" x="-11.318" y="-9.3538" width="114.668" height="116.662" fill="black">
<rect fill="white" x="-11.318" y="-9.3538" width="114.668" height="116.662"/>
<path d="M68.5735 22.2883L53.7461 32.0562C52.5456 30.6642 51.2351 29.5571 49.8148 28.7351C48.3944 27.9132 46.8936 27.3993 45.3123 27.1937C43.731 26.988 42.0986 27.1137 40.4152 27.5706C38.7385 27.9948 37.0698 28.7539 35.4091 29.8479C32.4634 31.7885 30.3984 34.1837 29.214 37.0334C28.0493 39.8702 27.7923 43.0304 28.443 46.514C29.1134 49.9846 30.725 53.6574 33.2776 57.5323C35.9345 61.5653 38.7349 64.5683 41.6789 66.5411C44.6296 68.4812 47.6086 69.4529 50.6158 69.4563C53.6299 69.4268 56.5801 68.4614 59.4665 66.5599C61.0876 65.4919 62.4237 64.314 63.4748 63.0263C64.5456 61.7255 65.3247 60.3476 65.812 58.8926C66.3061 57.4047 66.5016 55.8726 66.3986 54.2962C66.3024 52.6869 65.9009 51.0662 65.1941 49.4339L80.0802 39.7549C81.5944 42.613 82.5587 45.7766 82.973 49.2458C83.4071 52.7019 83.2071 56.2498 82.373 59.8895C81.5258 63.5094 79.8978 67.0199 77.4891 70.4211C75.1001 73.8093 71.8199 76.8774 67.6485 79.6254C62.1525 83.246 56.4353 85.283 50.497 85.7364C44.5655 86.1569 38.814 84.8712 33.2426 81.8794C27.6712 78.8875 22.691 74.0603 18.302 67.3979C13.8999 60.7157 11.4437 54.2116 10.9334 47.8855C10.4231 41.5595 11.5482 35.758 14.3086 30.4808C17.0691 25.2036 21.1479 20.7872 26.545 17.2317C30.2222 14.8093 33.9613 13.0832 37.7622 12.0534C41.55 11.0039 45.2748 10.6763 48.9366 11.0707C52.5853 11.4452 56.0822 12.5577 59.4274 14.408C62.7726 16.2583 65.8213 18.885 68.5735 22.2883Z"/>
</mask>
<path d="M68.5735 22.2883L71.8743 27.2987C73.288 26.3674 74.2425 24.8822 74.5024 23.2093C74.7623 21.5365 74.3034 19.8317 73.2388 18.5153L68.5735 22.2883ZM53.7461 32.0562L49.2025 35.9748C51.1716 38.2579 54.5292 38.7253 57.0469 37.0667L53.7461 32.0562ZM49.8148 28.7351L46.8094 33.9282L46.8094 33.9282L49.8148 28.7351ZM45.3123 27.1937L46.0861 21.2438L46.0861 21.2438L45.3123 27.1937ZM40.4152 27.5707L41.8867 33.3874C41.9202 33.3789 41.9536 33.3702 41.987 33.3611L40.4152 27.5707ZM29.214 37.0334L23.6734 34.7307C23.6701 34.7387 23.6668 34.7467 23.6635 34.7547L29.214 37.0334ZM28.443 46.514L22.545 47.6156C22.5472 47.6277 22.5495 47.6399 22.5519 47.652L28.443 46.514ZM41.6789 66.5411L38.3387 71.5254C38.3533 71.5352 38.3679 71.5449 38.3826 71.5546L41.6789 66.5411ZM50.6158 69.4563L50.6091 75.4562C50.6309 75.4563 50.6527 75.4562 50.6744 75.456L50.6158 69.4563ZM63.4748 63.0263L58.8425 59.2129C58.8372 59.2193 58.8319 59.2258 58.8265 59.2324L63.4748 63.0263ZM65.812 58.8926L71.5014 60.798C71.5031 60.7932 71.5047 60.7883 71.5063 60.7834L65.812 58.8926ZM66.3986 54.2962L60.4093 54.6544C60.41 54.6653 60.4107 54.6763 60.4114 54.6873L66.3986 54.2962ZM65.1941 49.4339L61.9235 44.4037C59.4698 45.9991 58.5252 49.1321 59.6881 51.818L65.1941 49.4339ZM80.0802 39.7549L85.382 36.9459C84.5934 35.4576 83.2156 34.3692 81.5851 33.9467C79.9546 33.5243 78.2216 33.8066 76.8095 34.7248L80.0802 39.7549ZM82.973 49.2458L77.0154 49.9573C77.0168 49.9694 77.0183 49.9814 77.0198 49.9935L82.973 49.2458ZM82.373 59.8895L88.2151 61.2568C88.2172 61.2478 88.2193 61.2388 88.2213 61.2299L82.373 59.8895ZM77.4891 70.4211L72.5926 66.9534L72.5855 66.9636L77.4891 70.4211ZM50.497 85.7364L50.9214 91.7214C50.9322 91.7206 50.943 91.7198 50.9538 91.719L50.497 85.7364ZM33.2426 81.8794L36.0813 76.5933L33.2426 81.8794ZM10.9334 47.8855L4.95281 48.368L4.95281 48.368L10.9334 47.8855ZM37.7622 12.0534L39.3311 17.8446C39.3422 17.8417 39.3532 17.8386 39.3642 17.8356L37.7622 12.0534ZM48.9366 11.0707L48.2941 17.0362C48.304 17.0372 48.3139 17.0383 48.3238 17.0393L48.9366 11.0707ZM65.2728 17.2778L50.4453 27.0457L57.0469 37.0667L71.8743 27.2987L65.2728 17.2778ZM58.2898 28.1376C56.7034 26.2982 54.8861 24.7377 52.8201 23.5421L46.8094 33.9282C47.5841 34.3765 48.3878 35.0301 49.2025 35.9748L58.2898 28.1376ZM52.8201 23.5421C50.7337 22.3346 48.4771 21.5547 46.0861 21.2438L44.5385 33.1436C45.3102 33.2439 46.0552 33.4917 46.8094 33.9282L52.8201 23.5421ZM46.0861 21.2438C43.6492 20.9269 41.2184 21.1355 38.8434 21.7802L41.987 33.3611C42.9788 33.0919 43.8128 33.0492 44.5385 33.1436L46.0861 21.2438ZM38.9436 21.7539C36.527 22.3653 34.2468 23.4287 32.1083 24.8374L38.7099 34.8584C39.8927 34.0792 40.9499 33.6244 41.8867 33.3874L38.9436 21.7539ZM32.1083 24.8374C28.3101 27.3397 25.3809 30.6225 23.6734 34.7307L34.7545 39.3361C35.4158 37.7449 36.6167 36.2373 38.7099 34.8584L32.1083 24.8374ZM23.6635 34.7547C21.9946 38.8198 21.7158 43.1764 22.545 47.6156L34.341 45.4124C33.8688 42.8844 34.104 40.9206 34.7644 39.3122L23.6635 34.7547ZM22.5519 47.652C23.41 52.0945 25.4106 56.4968 28.2672 60.833L38.2881 54.2315C36.0393 50.8179 34.8168 47.8748 34.3341 45.376L22.5519 47.652ZM28.2672 60.833C31.2137 65.3058 34.5379 68.9783 38.3387 71.5254L45.0191 61.5568C42.932 60.1582 40.6553 57.8249 38.2881 54.2315L28.2672 60.833ZM38.3826 71.5546C42.1366 74.0228 46.2408 75.4514 50.6091 75.4562L50.6225 63.4563C48.9763 63.4544 47.1225 62.9396 44.9752 61.5277L38.3826 71.5546ZM50.6744 75.456C55.0039 75.4137 59.0626 74.0109 62.7673 71.5703L56.1657 61.5494C54.0976 62.9118 52.2559 63.44 50.5572 63.4565L50.6744 75.456ZM62.7673 71.5703C64.8135 70.2223 66.6288 68.6509 68.1231 66.8202L58.8265 59.2324C58.2186 59.9772 57.3618 60.7615 56.1657 61.5494L62.7673 71.5703ZM68.1071 66.8397C69.5982 65.0283 70.7595 63.0133 71.5014 60.798L60.1226 56.9871C59.89 57.6818 59.4931 58.4226 58.8425 59.2129L68.1071 66.8397ZM71.5063 60.7834C72.2462 58.5552 72.5389 56.2478 72.3859 53.9051L60.4114 54.6873C60.4643 55.4974 60.366 56.2543 60.1178 57.0017L71.5063 60.7834ZM72.3879 53.938C72.2458 51.562 71.6562 49.258 70.7002 47.0499L59.6881 51.818C60.1456 52.8744 60.359 53.8119 60.4093 54.6544L72.3879 53.938ZM68.4648 54.4641L83.3508 44.7851L76.8095 34.7248L61.9235 44.4037L68.4648 54.4641ZM74.7783 42.564C75.9199 44.7185 76.6816 47.1625 77.0154 49.9573L88.9307 48.5342C88.4358 44.3906 87.2689 40.5074 85.382 36.9459L74.7783 42.564ZM77.0198 49.9935C77.3603 52.7042 77.2132 55.5445 76.5246 58.5491L88.2213 61.2299C89.201 56.9552 89.454 52.6997 88.9263 48.498L77.0198 49.9935ZM76.5308 58.5222C75.8804 61.3014 74.6075 64.1083 72.5927 66.9534L82.3856 73.8888C85.1881 69.9315 87.1712 65.7173 88.2151 61.2568L76.5308 58.5222ZM72.5855 66.9636C70.7077 69.6268 68.0176 72.1973 64.3477 74.6149L70.9493 84.6359C75.6223 81.5574 79.4926 77.9917 82.3927 73.8786L72.5855 66.9636ZM64.3477 74.6149C59.6105 77.7357 54.8597 79.3859 50.0403 79.7538L50.9538 91.719C58.0109 91.1802 64.6944 88.7564 70.9493 84.6359L64.3477 74.6149ZM50.0727 79.7514C45.3459 80.0865 40.7193 79.084 36.0813 76.5933L30.404 87.1654C36.9087 90.6585 43.7851 92.2273 50.9214 91.7214L50.0727 79.7514ZM36.0813 76.5933C31.5877 74.1802 27.294 70.141 23.3124 64.0971L13.2915 70.6987C18.0881 77.9797 23.7548 83.5947 30.404 87.1654L36.0813 76.5933ZM23.3124 64.0971C19.3235 58.0421 17.3246 52.4936 16.914 47.4031L4.95281 48.368C5.56278 55.9295 8.47623 63.3892 13.2915 70.6987L23.3124 64.0971ZM16.914 47.4031C16.4885 42.1284 17.4244 37.469 19.6252 33.2618L8.99205 27.6997C5.67187 34.0469 4.3577 40.9907 4.95281 48.368L16.914 47.4031ZM19.6252 33.2618C21.8741 28.9626 25.2244 25.2867 29.8458 22.2422L23.2443 12.2212C17.0713 16.2878 12.2641 21.4446 8.99205 27.6997L19.6252 33.2618ZM29.8458 22.2422C33.0531 20.1293 36.2133 18.6893 39.3311 17.8446L36.1932 6.26219C31.7092 7.477 27.3914 9.48921 23.2443 12.2212L29.8458 22.2422ZM39.3642 17.8356C42.4718 16.9746 45.4349 16.7283 48.2941 17.0362L49.579 5.10516C45.1147 4.62438 40.6283 5.03324 36.1601 6.27126L39.3642 17.8356ZM48.3238 17.0393C51.1342 17.3278 53.8552 18.1826 56.5233 19.6583L62.3315 9.15763C58.3093 6.93281 54.0364 5.56268 49.5493 5.10204L48.3238 17.0393ZM56.5233 19.6583C59.1008 21.084 61.5724 23.1729 63.9082 26.0612L73.2388 18.5153C70.0701 14.5971 66.4444 11.4326 62.3315 9.15763L56.5233 19.6583Z" fill="#7878F0" fill-opacity="0.1" mask="url(#path-1-outside-1_8_440)"/>
</g>
<defs>
<filter id="filter0_f_8_440" x="0.814026" y="0.909058" width="92.3819" height="94.9051" filterUnits="userSpaceOnUse" color-interpolation-filters="sRGB">
<feFlood flood-opacity="0" result="BackgroundImageFix"/>
<feBlend mode="normal" in="SourceGraphic" in2="BackgroundImageFix" result="shape"/>
<feGaussianBlur stdDeviation="2" result="effect1_foregroundBlur_8_440"/>
</filter>
</defs>
</svg>
