<svg width="96" height="104" viewBox="0 0 96 104" fill="none" xmlns="http://www.w3.org/2000/svg">
<g filter="url(#filter0_f_8_439)">
<mask id="path-1-outside-1_8_439" maskUnits="userSpaceOnUse" x="2.08489" y="1.69042" width="101.328" height="107.669" fill="black">
<rect fill="white" x="2.08489" y="1.69042" width="101.328" height="107.669"/>
<path d="M10.5752 75.384L42.8225 10.1968L70.0051 23.6437C74.8856 26.058 78.6293 28.7684 81.236 31.7747C83.864 34.7916 85.3915 37.9508 85.8184 41.2522C86.2666 44.5642 85.6825 47.8542 84.0659 51.122C82.8377 53.6047 81.2209 55.565 79.2154 57.0029C77.2204 58.4195 74.9955 59.313 72.5407 59.6835C70.086 60.0539 67.5338 59.9007 64.884 59.2238L64.5691 59.8603C67.1374 61.2893 69.2154 63.2021 70.8031 65.5987C72.4121 68.0058 73.3235 70.7018 73.5374 73.6865C73.7617 76.6501 73.0971 79.7021 71.5436 82.8427C69.8115 86.3439 67.372 89.033 64.2249 90.9098C61.0883 92.7654 57.4394 93.6544 53.2781 93.5768C49.1274 93.478 44.6436 92.2372 39.8267 89.8543L10.5752 75.384ZM32.6135 70.4781L42.3533 75.2963C45.7697 76.9863 48.6044 77.5831 50.8575 77.0864C53.1317 76.6003 54.8409 75.2008 55.9851 72.8878C56.8144 71.2114 57.1357 69.5743 56.9489 67.9764C56.7726 66.3572 56.1256 64.8619 55.0081 63.4902C53.9011 62.0974 52.3396 60.9024 50.3237 59.9051L40.2974 54.9452L32.6135 70.4781ZM45.3203 44.7915L54.0416 49.1059C55.7604 49.9562 57.43 50.4255 59.0502 50.5139C60.6705 50.6023 62.1197 50.2891 63.3977 49.5742C64.697 48.8699 65.7245 47.7539 66.4803 46.226C67.5615 44.0404 67.6373 41.9385 66.7076 39.9202C65.7778 37.9019 63.9974 36.242 61.3661 34.9403L52.3901 30.5L45.3203 44.7915Z"/>
</mask>
<path d="M10.5752 75.384L5.19728 72.7236C3.72798 75.6937 4.94466 79.2926 7.91481 80.7619L10.5752 75.384ZM42.8225 10.1968L45.4829 4.81887C42.5128 3.34957 38.9139 4.56625 37.4446 7.5364L42.8225 10.1968ZM81.236 31.7747L76.7028 35.7054L76.7118 35.7158L81.236 31.7747ZM85.8184 41.2522L79.868 42.0218C79.8695 42.0335 79.8711 42.0452 79.8726 42.0569L85.8184 41.2522ZM79.2154 57.0029L82.6892 61.895C82.6966 61.8897 82.704 61.8844 82.7114 61.8791L79.2154 57.0029ZM72.5407 59.6835L71.6455 53.7506L71.6455 53.7506L72.5407 59.6835ZM64.884 59.2238L66.3691 53.4104C63.6239 52.7092 60.7624 54.0238 59.5061 56.5633L64.884 59.2238ZM64.5691 59.8603L59.1911 57.1999C57.7718 60.0691 58.8547 63.5471 61.6519 65.1034L64.5691 59.8603ZM70.8031 65.5987L65.8012 68.9125C65.8057 68.9193 65.8103 68.9262 65.8149 68.933L70.8031 65.5987ZM73.5374 73.6865L67.5527 74.1154C67.5533 74.1234 67.5539 74.1315 67.5545 74.1395L73.5374 73.6865ZM64.2249 90.9098L67.2799 96.0738C67.2859 96.0702 67.292 96.0666 67.2981 96.063L64.2249 90.9098ZM53.2781 93.5768L53.1354 99.5751C53.1457 99.5753 53.156 99.5756 53.1663 99.5758L53.2781 93.5768ZM32.6135 70.4781L27.2355 67.8177C25.7662 70.7878 26.9829 74.3867 29.9531 75.856L32.6135 70.4781ZM50.8575 77.0864L49.6033 71.219C49.5908 71.2216 49.5784 71.2243 49.5659 71.2271L50.8575 77.0864ZM56.9489 67.9764L50.9841 68.6258C50.9858 68.6416 50.9876 68.6573 50.9894 68.673L56.9489 67.9764ZM55.0081 63.4902L50.311 67.2235C50.3261 67.2425 50.3413 67.2613 50.3566 67.2801L55.0081 63.4902ZM40.2974 54.9452L42.9578 49.5673C39.9876 48.098 36.3888 49.3146 34.9195 52.2848L40.2974 54.9452ZM45.3203 44.7915L39.9424 42.1311C38.4731 45.1013 39.6897 48.7002 42.6599 50.1695L45.3203 44.7915ZM63.3977 49.5742L60.5383 44.2994C60.5151 44.312 60.492 44.3247 60.4689 44.3376L63.3977 49.5742ZM66.7076 39.9202L72.1572 37.4098L72.1572 37.4098L66.7076 39.9202ZM52.3901 30.5L55.0505 25.1221C52.0804 23.6528 48.4815 24.8695 47.0122 27.8396L52.3901 30.5ZM15.9532 78.0444L48.2005 12.8572L37.4446 7.5364L5.19728 72.7236L15.9532 78.0444ZM40.1621 15.5747L67.3447 29.0216L72.6655 18.2657L45.4829 4.81887L40.1621 15.5747ZM67.3447 29.0216C71.7576 31.2047 74.7723 33.4789 76.7028 35.7054L85.7692 27.8441C82.4863 24.0579 78.0136 20.9114 72.6655 18.2657L67.3447 29.0216ZM76.7118 35.7158C78.7211 38.0223 79.6213 40.1145 79.868 42.0218L91.7689 40.4827C91.1616 35.787 89.0069 31.5609 85.7602 27.8337L76.7118 35.7158ZM79.8726 42.0569C80.1458 44.0752 79.8243 46.1644 78.6879 48.4616L89.4438 53.7824C91.5406 49.5439 92.3875 45.0532 91.7642 40.4476L79.8726 42.0569ZM78.6879 48.4616C77.8418 50.1721 76.8316 51.3292 75.7193 52.1266L82.7114 61.8791C85.6101 59.8009 87.8337 57.0373 89.4438 53.7824L78.6879 48.4616ZM75.7415 52.1108C74.5242 52.9752 73.1851 53.5183 71.6455 53.7506L73.436 65.6163C76.8058 65.1078 79.9165 63.8638 82.6892 61.895L75.7415 52.1108ZM71.6455 53.7506C70.0614 53.9897 68.3207 53.909 66.3691 53.4104L63.3989 65.0371C66.7468 65.8923 70.1107 66.1181 73.436 65.6163L71.6455 53.7506ZM59.5061 56.5633L59.1911 57.1999L69.947 62.5207L70.2619 61.8842L59.5061 56.5633ZM61.6519 65.1034C63.4003 66.0762 64.7561 67.3349 65.8012 68.9125L75.805 62.285C73.6746 59.0693 70.8744 56.5024 67.4863 54.6173L61.6519 65.1034ZM65.8149 68.933C66.8253 70.4447 67.4107 72.1328 67.5527 74.1154L79.522 73.2577C79.2363 69.2707 77.9989 65.567 75.7914 62.2644L65.8149 68.933ZM67.5545 74.1395C67.6841 75.8513 67.3281 77.8323 66.1656 80.1823L76.9215 85.5031C78.8662 81.5719 79.8394 77.4488 79.5203 73.2336L67.5545 74.1395ZM66.1656 80.1823C64.9104 82.7196 63.2401 84.5111 61.1517 85.7566L67.2981 96.063C71.5038 93.5548 74.7127 89.9682 76.9215 85.5031L66.1656 80.1823ZM61.1699 85.7458C59.1212 86.9578 56.6001 87.6377 53.3899 87.5778L53.1663 99.5758C58.2786 99.6711 63.0554 98.573 67.2799 96.0738L61.1699 85.7458ZM53.4209 87.5785C50.3621 87.5057 46.7418 86.5812 42.4871 84.4764L37.1663 95.2323C42.5453 97.8932 47.8927 99.4503 53.1354 99.5751L53.4209 87.5785ZM42.4871 84.4764L13.2356 70.006L7.91481 80.7619L37.1663 95.2323L42.4871 84.4764ZM29.9531 75.856L39.6929 80.6742L45.0137 69.9183L35.2739 65.1001L29.9531 75.856ZM39.6929 80.6742C43.5983 82.6062 47.9364 83.8743 52.149 82.9458L49.5659 71.2271C49.2725 71.2918 47.9412 71.3665 45.0137 69.9183L39.6929 80.6742ZM52.1116 82.9539C56.3907 82.0392 59.5078 79.2987 61.3631 75.5482L50.6072 70.2274C50.1741 71.1028 49.8727 71.1614 49.6033 71.219L52.1116 82.9539ZM61.3631 75.5482C62.6211 73.0052 63.2504 70.2068 62.9083 67.2797L50.9894 68.673C51.0209 68.9418 51.0077 69.4177 50.6072 70.2274L61.3631 75.5482ZM62.9136 67.3269C62.6011 64.4568 61.4431 61.8893 59.6597 59.7004L50.3566 67.2801C50.8082 67.8344 50.944 68.2577 50.9841 68.6258L62.9136 67.3269ZM59.7052 59.757C57.9234 57.5152 55.589 55.8158 52.9841 54.5272L47.6633 65.2831C49.0902 65.9889 49.8787 66.6796 50.311 67.2235L59.7052 59.757ZM52.9841 54.5272L42.9578 49.5673L37.637 60.3232L47.6633 65.2831L52.9841 54.5272ZM34.9195 52.2848L27.2355 67.8177L37.9914 73.1385L45.6753 57.6056L34.9195 52.2848ZM42.6599 50.1695L51.3812 54.4838L56.702 43.7279L47.9807 39.4136L42.6599 50.1695ZM51.3812 54.4838C53.698 55.6299 56.1582 56.365 58.7234 56.505L59.3771 44.5228C58.7018 44.4859 57.8229 44.2824 56.702 43.7279L51.3812 54.4838ZM58.7234 56.505C61.3516 56.6483 63.9513 56.1393 66.3265 54.8108L60.4689 44.3376C60.288 44.4388 59.9894 44.5562 59.3771 44.5228L58.7234 56.505ZM66.2571 54.8491C68.8065 53.4671 70.6401 51.3488 71.8583 48.8864L61.1024 43.5656C60.8089 44.1589 60.5874 44.2728 60.5383 44.2994L66.2571 54.8491ZM71.8583 48.8864C73.6538 45.2567 73.9254 41.2484 72.1572 37.4098L61.258 42.4305C61.3525 42.6357 61.354 42.7354 61.3519 42.7943C61.3492 42.871 61.3258 43.114 61.1024 43.5656L71.8583 48.8864ZM72.1572 37.4098C70.4917 33.7943 67.4909 31.2762 64.0265 29.5624L58.7057 40.3183C60.5038 41.2078 61.064 42.0096 61.258 42.4306L72.1572 37.4098ZM64.0265 29.5624L55.0505 25.1221L49.7297 35.878L58.7057 40.3183L64.0265 29.5624ZM47.0122 27.8396L39.9424 42.1311L50.6982 47.4519L57.7681 33.1604L47.0122 27.8396Z" fill="#D1EDFF" fill-opacity="0.1" mask="url(#path-1-outside-1_8_439)"/>
</g>
<defs>
<filter id="filter0_f_8_439" x="0.573883" y="0.195496" width="95.3907" height="103.386" filterUnits="userSpaceOnUse" color-interpolation-filters="sRGB">
<feFlood flood-opacity="0" result="BackgroundImageFix"/>
<feBlend mode="normal" in="SourceGraphic" in2="BackgroundImageFix" result="shape"/>
<feGaussianBlur stdDeviation="2" result="effect1_foregroundBlur_8_439"/>
</filter>
</defs>
</svg>
