<svg width="93" height="94" viewBox="0 0 93 94" fill="none" xmlns="http://www.w3.org/2000/svg">
<g filter="url(#filter0_f_8_436)">
<mask id="path-1-outside-1_8_436" maskUnits="userSpaceOnUse" x="3.67096" y="4.42587" width="85" height="85" fill="black">
<rect fill="white" x="3.67096" y="4.42587" width="85" height="85"/>
<path d="M28.9068 83.4259H10.0147L34.5531 10.6986H57.9551L82.4934 83.4259H63.6014L46.5204 29.0225H45.9522L28.9068 83.4259ZM26.3854 54.8037H65.8741V68.156H26.3854V54.8037Z"/>
</mask>
<path d="M28.9068 83.4259V89.4259C31.5294 89.4259 33.8482 87.7225 34.6323 85.2198L28.9068 83.4259ZM10.0147 83.4259L4.32959 81.5077C3.71177 83.3388 4.01375 85.3554 5.14085 86.9252C6.26795 88.495 8.08218 89.4259 10.0147 89.4259V83.4259ZM34.5531 10.6986V4.6986C31.9786 4.6986 29.691 6.34103 28.8679 8.78042L34.5531 10.6986ZM57.9551 10.6986L63.6402 8.78042C62.8171 6.34103 60.5296 4.6986 57.9551 4.6986V10.6986ZM82.4934 83.4259V89.4259C84.4259 89.4259 86.2402 88.495 87.3673 86.9252C88.4944 85.3554 88.7963 83.3388 88.1785 81.5077L82.4934 83.4259ZM63.6014 83.4259L57.8769 85.2232C58.6621 87.7242 60.98 89.4259 63.6014 89.4259V83.4259ZM46.5204 29.0225L52.2449 27.2252C51.4596 24.7242 49.1417 23.0225 46.5204 23.0225V29.0225ZM45.9522 29.0225V23.0225C43.3295 23.0225 41.0108 24.7259 40.2267 27.2286L45.9522 29.0225ZM26.3854 54.8037V48.8037C23.0717 48.8037 20.3854 51.49 20.3854 54.8037H26.3854ZM65.8741 54.8037H71.8741C71.8741 51.49 69.1878 48.8037 65.8741 48.8037V54.8037ZM65.8741 68.156V74.156C69.1878 74.156 71.8741 71.4697 71.8741 68.156H65.8741ZM26.3854 68.156H20.3854C20.3854 71.4697 23.0717 74.156 26.3854 74.156V68.156ZM28.9068 77.4259H10.0147V89.4259H28.9068V77.4259ZM15.6998 85.344L40.2382 12.6168L28.8679 8.78042L4.32959 81.5077L15.6998 85.344ZM34.5531 16.6986H57.9551V4.6986H34.5531V16.6986ZM52.2699 12.6168L76.8083 85.344L88.1785 81.5077L63.6402 8.78042L52.2699 12.6168ZM82.4934 77.4259H63.6014V89.4259H82.4934V77.4259ZM69.3258 81.6286L52.2449 27.2252L40.7959 30.8198L57.8769 85.2232L69.3258 81.6286ZM46.5204 23.0225H45.9522V35.0225H46.5204V23.0225ZM40.2267 27.2286L23.1812 81.632L34.6323 85.2198L51.6778 30.8164L40.2267 27.2286ZM26.3854 60.8037H65.8741V48.8037H26.3854V60.8037ZM59.8741 54.8037V68.156H71.8741V54.8037H59.8741ZM65.8741 62.156H26.3854V74.156H65.8741V62.156ZM32.3854 68.156V54.8037H20.3854V68.156H32.3854Z" fill="#5865F2" fill-opacity="0.1" mask="url(#path-1-outside-1_8_436)"/>
</g>
<defs>
<filter id="filter0_f_8_436" x="0.0146484" y="0.698608" width="92.4788" height="92.7273" filterUnits="userSpaceOnUse" color-interpolation-filters="sRGB">
<feFlood flood-opacity="0" result="BackgroundImageFix"/>
<feBlend mode="normal" in="SourceGraphic" in2="BackgroundImageFix" result="shape"/>
<feGaussianBlur stdDeviation="2" result="effect1_foregroundBlur_8_436"/>
</filter>
</defs>
</svg>
