<?xml version="1.0" encoding="utf-8"?>
<!-- Generator: Adobe Illustrator 27.5.0, SVG Export Plug-In . SVG Version: 6.00 Build 0)  -->
<svg version="1.1" id="Layer_1" xmlns="http://www.w3.org/2000/svg" xmlns:xlink="http://www.w3.org/1999/xlink" x="0px" y="0px"
	 viewBox="0 0 3000 2000" style="enable-background:new 0 0 3000 2000;" xml:space="preserve">
<rect style="fill:#FFFFFF;" width="3000" height="2000"/>
<g>
	<g>
		<g>
			<path style="fill:#223247;" d="M764.132,690.407c0,0-14.878-32.552-44.95-18.291c-30.068,14.259-25.111,57.447-13.949,75.688
				c11.159,18.243,51.073,45.212,38.092,78.072c-12.98,32.86-29.412,58.28-29.412,58.28s80.599-3.643,89.591-46.462
				C812.493,794.876,764.132,690.407,764.132,690.407z"/>
		</g>
		<path style="fill:#F08D29;" d="M925.006,1076.433c-2.443-11.936-4.347-11.533-5.694-28.772
			c-1.347-17.243-3.07-99.625-3.475-109.762c-0.404-10.139-2.351-57.879-13.282-77.838c-11.169-20.388-47.403-32.715-47.403-32.715
			s18.739,99.996,18.53,120.771c-0.064,6.251,1.933,17.623,4.822,30.713c0.021,0.101,0.042,0.206,0.064,0.31
			c0.607,2.884,0.628,5.35,0.354,7.595c-0.918,7.471-5.173,12.467-2.56,22.274l-0.053,5.235c0.259,0.979,0.521,1.965,0.78,2.954
			c3.684,14.142,7.091,29.223,8.684,35.985c0.333,1.404,0.588,2.452,0.748,3.055c2.44,9.145-0.539,4.28,3.791,27.18
			C890.312,1083.417,929.719,1099.436,925.006,1076.433z"/>
		<path style="fill:#8E4F3A;" d="M720.097,1141.646c0,0-30.983,40.285-39.39,88.079c-8.404,47.793,4.964,208.201,4.599,231.823
			c-0.366,23.62-22.342,82.401-17.945,126.897c4.393,44.497,41.053,268.51,41.053,268.51l28.855-5.318
			c0,0-3.439-232.429-0.692-251.105c2.749-18.678,8.258-86.76,9.357-94.45c1.099-7.691,69.749-209.64,69.749-244.098
			C815.684,1227.525,794.81,1085.43,720.097,1141.646z"/>
		<path style="fill:#8E4F3A;" d="M875.745,1157.395c0,0,50.907,194.284,56.949,221.202c6.042,26.917,14.796,49.117,14.796,60.547
			c0,26.518,10.276,77.601,10.276,77.601l55.459,313.185h-31.788c0,0-78.634-204.74-87.481-251.147
			c-6.811-35.719-8.105-80.577-13.602-95.959c-5.492-15.382-98.732-183.332-98.732-183.332S718.817,1100.994,875.745,1157.395z"/>
		<path style="fill:#292C47;" d="M947.49,1439.144c0,0-117.744,50.552-293.053,50.552c0,0,7.691-228.395,33.178-285.598
			c25.487-57.204,192.19-31.469,192.19-31.469S947.49,1391.216,947.49,1439.144z"/>
		<g>
			<path style="fill:#F08D29;" d="M893.985,968.065c-13.205,30.582-0.752,40.786-6.787,71.367
				c-6.049,30.583-6.039,113.965-4.915,130.958c1.146,16.984-165.619,59.446-200.729,28.483c0,0,9.134-31.983,20.665-66.113
				c1.429-4.214,2.89-8.467,4.375-12.691c5.723-16.297,11.808-32.231,17.509-44.59c3.691-8.001,5.634-43.599,1.479-54.174
				c-1.603-4.081-9.566-18.348-18.722-34.319c-3.833-6.657-7.864-13.626-11.736-20.264c-10.9-18.7-20.502-34.901-20.502-34.901
				s-9.691-78.73,10.736-94.586c6.982-5.418,19.654-9.671,32.993-13.027c5.007-1.25,10.127-2.375,15.059-3.386
				c15.342-3.175,28.997-5.233,32.993-6.618c8.676-3.022,33.94-4.338,51.694-1.697c0,0,27.178,12.836,36.617,14.724
				c9.442,1.888,46.07,49.472,52.487,66.829C913.632,911.432,907.203,937.485,893.985,968.065z"/>
		</g>
		<g>
			<path style="fill:#8E4F3A;" d="M831.076,781.141c0,0-0.684,6.253-1.503,15.073c-0.379,4.012-0.791,8.574-1.202,13.298
				c-1.145,14.144-2.128,29.873-1.582,37.738c0,0-28.263,28.288-60.373-33.041c0,0,13.517-25.285,3.329-59.746
				C759.562,720.002,831.076,781.141,831.076,781.141z"/>
		</g>
		<path style="fill:#8E4F3A;" d="M744.698,818.556c0,0,34.192,55.511,72.788,53.174c53.42-3.231,25.292-48.463,25.292-48.463
			s-13.296-7.625-17.041-8.345c-3.741-0.72-58.987-1.42-58.987-1.42L744.698,818.556z"/>
		<g>
			<path style="fill:#F08D29;" d="M723.739,828.982c0,0-35.625-6.155-55.08,25.538c-22.264,36.27-21.896,52.958-25.328,71.261
				c-3.244,17.283-13.885,45.11-15.232,49.963c-1.348,4.854-27.193,54.313-16.488,75.264
				c10.758,21.061,112.475,36.525,113.677,40.959c0.762,2.822,12.027-35.72,12.027-35.72s-14.953-3.179-29.387-7.948
				c-17.559-5.799-35.167-16.89-32.753-25.899c5.315-19.853,23.249-65.186,28.203-74.604
				C708.329,938.376,752.055,842.515,723.739,828.982z"/>
		</g>
		<path style="fill:#51578C;" d="M986.206,1826.604c0,0,11.095-9.867,16.633-11.034c5.542-1.166,10.789-0.874,13.123,1.75
			c2.333,2.624,9.056,13.119,12.69,16.326c3.635,3.209,29.586,28.283,35.709,30.033c6.124,1.75,32.657,0.292,31.196,15.745
			c-1.458,15.452-23.033,22.159-61.519,18.659c-38.489-3.498-33.823-12.536-55.399-17.202
			c-21.576-4.665-23.033-15.452-19.243-28.574c3.791-13.121,19.072-26.175,17.491-29.672
			C975.31,1819.14,986.206,1826.604,986.206,1826.604z"/>
		<path style="fill:#51578C;" d="M714.289,1854.59c0,0,12.289-5.577,20.477-5.287c8.187,0.295,7.308,5.31,9.357,8.357
			c2.045,3.048,21.345,32.288,26.607,37.552c5.262,5.262,23.977,10.818,21.346,23.976c-2.631,13.158-26.316,18.42-55.555,14.619
			c-29.242-3.802-43.57-30.993-48.247-37.135c-4.68-6.14,11.109-45.614,15.789-48.393
			C708.74,1845.502,714.289,1854.59,714.289,1854.59z"/>
		<path style="fill:#C9B9B3;" d="M907.42,928.71c0,0-7.79,27.888-14.172,41.716c-6.386,13.83-5.294,30.85-4.791,41.223
			c0.507,10.371,0.238,22.568-3.071,39.872c0,0,0.479,14.706,3.372,14.587C888.758,1066.108,902.264,1029.098,907.42,928.71z"/>
		<g>
			<path style="fill:#51578C;" d="M741.18,674.086c0,0-16.739,8.37-15.81,32.858c0.929,24.491,24.934,43.393,35.341,38.411
				C771.117,740.372,741.18,674.086,741.18,674.086z"/>
		</g>
		<g>
			<path style="fill:#8E4F3A;" d="M847.198,636.886c0,0,32.55,21.39,29.763,66.65c-2.79,45.259-17.98,90.52-27.281,94.549
				c-9.3,4.031-48.889-10.726-56.735-14.883c-8.889-4.706-24.278-21.799-27.377-27.07c-3.103-5.269-35.858-77.087-4.237-104.366
				C792.948,624.484,809.379,623.245,847.198,636.886z"/>
		</g>
		<g>
			<path style="fill:#223247;" d="M821.159,690.826c0,0,27.916,10.26,55.962,7.765c0,0,9.138-79.996-70.997-79.996
				c-80.134,0-68.355,79.979-66.805,90.83c1.549,10.85,16.236,49.819,33.398,58.847c0,0-6.117-41.177,5.354-48.616
				C789.541,712.215,815.269,703.226,821.159,690.826z"/>
		</g>
		<g>
			<path style="fill:#8E4F3A;" d="M794.501,710.976c-1.634-9.104-10.233-17.67-20.15-8.371c-9.921,9.3,6.818,32.55,13.949,31.311
				C795.43,732.676,796.671,723.065,794.501,710.976z"/>
		</g>
		<g>
			<path style="fill:#C44747;" d="M873.572,999.337H718.644c-0.964,0-1.745-0.781-1.745-1.745v-32.177
				c0-0.964,0.781-1.745,1.745-1.745h154.928V999.337z"/>
			<path style="fill:#E68E35;" d="M853.23,1035.004H698.302c-0.964,0-1.745-0.781-1.745-1.745v-32.177
				c0-0.964,0.781-1.745,1.745-1.745H853.23V1035.004z"/>
			<path style="fill:#58A668;" d="M873.572,1070.671H718.644c-0.964,0-1.745-0.781-1.745-1.745v-32.177
				c0-0.964,0.781-1.745,1.745-1.745h154.928V1070.671z"/>
			<path style="fill:#E55353;" d="M941.388,999.337H786.464c-0.964,0-1.745-0.781-1.745-1.745v-32.177
				c0-0.964,0.781-1.745,1.745-1.745h154.924V999.337z"/>
			<path style="fill:#FAE6DE;" d="M941.388,995.437H790.747c-0.964,0-1.745-0.781-1.745-1.745v-24.378
				c0-0.964,0.781-1.745,1.745-1.745h150.641V995.437z"/>
			<path style="fill:#5084C7;" d="M932.311,963.67H724.383c-1.116,0-2.021-0.905-2.021-2.021v-31.628
				c0-1.116,0.905-2.021,2.021-2.021h207.928V963.67z"/>
			<path style="fill:#5E9BEB;" d="M932.311,963.67h-87.539c-0.726,0-1.314-0.588-1.314-1.315v-33.039
				c0-0.726,0.588-1.315,1.314-1.315h87.539V963.67z"/>
			<path style="fill:#FAE6DE;" d="M932.311,959.769h-85.107c-0.726,0-1.314-0.588-1.314-1.313v-25.24
				c0-0.726,0.588-1.314,1.314-1.314h85.107V959.769z"/>
			<path style="fill:#FAA146;" d="M921.046,1035.004H766.122c-0.963,0-1.745-0.781-1.745-1.745v-32.177
				c0-0.964,0.782-1.745,1.745-1.745h154.924V1035.004z"/>
			<path style="fill:#6DBD7D;" d="M941.388,1070.671H786.464c-0.964,0-1.745-0.781-1.745-1.745v-32.177
				c0-0.964,0.781-1.745,1.745-1.745h154.924V1070.671z"/>
			<path style="fill:#FAE6DE;" d="M921.046,1031.332H770.405c-0.964,0-1.745-0.781-1.745-1.745v-24.835
				c0-0.964,0.781-1.745,1.745-1.745h150.641V1031.332z"/>
			<path style="fill:#FAE6DE;" d="M941.388,1066.475H790.747c-0.964,0-1.745-0.781-1.745-1.745v-23.787
				c0-0.964,0.781-1.745,1.745-1.745h150.641V1066.475z"/>
		</g>
		<g>
			<path style="fill:#8E4F3A;" d="M724.458,1059.909c0,0-13.413,7.109-9.62,12.226c3.797,5.115,9.467,11.282,9.467,11.282
				L724.458,1059.909z"/>
			<path style="fill:#8E4F3A;" d="M834.789,1071.263l-63.767-6.707c5.822-2.688,15.279-7.592,13.559-10.406
				c-2.454-4.02-21.317,2.473-28.735,2.515c-6.794,0.042-15.722,3.85-17.176,4.488l-15.679-1.649l1.315,23.914
				c0,0,33.447,7.157,43.148,8.785c15.775,2.644,66.206-11.61,67.288-14.403C836.699,1072.761,834.789,1071.263,834.789,1071.263z"
				/>
		</g>
		<path style="fill:#F08D29;" d="M737.315,1056.248c0,0-5.606,29.282-14.953,41.64c0,0-61.082-22.042-76.251-27.716l38.096-33.514
			C684.207,1036.658,705.293,1049.174,737.315,1056.248z"/>
		<path style="fill:#8E4F3A;" d="M933.757,1058.088c0,0,1.089,22.746-12.577,27.77c-13.669,5.024-29.352,2.718-36.191-0.213
			c-6.84-2.931-24.189-11.625-18.757-18.371C883.673,1045.629,933.757,1058.088,933.757,1058.088z"/>
		<path style="fill:#8E4F3A;" d="M929.453,1073.861c0,0,17.694-0.26,16.073-6.634c-1.621-6.372-14.013-2.886-14.013-2.886
			L929.453,1073.861z"/>
		<path style="fill:#613628;" d="M829.573,796.214c-0.379,4.012-0.791,8.574-1.202,13.298
			c-27.196-9.886-38.419-28.182-38.419-28.182C796.941,787.04,829.573,796.214,829.573,796.214z"/>
	</g>
	<g>
		<g>
			<g>
				<path style="fill:#424773;" d="M1493.085,1198.613c0,0-12.954,23.792-14.809,27.401c-1.854,3.607-39.464-17.184-39.464-17.184
					l7.888-31.125C1446.7,1177.706,1489.421,1193.218,1493.085,1198.613z"/>
			</g>
		</g>
		<g>
			<g>
				<path style="fill:#8B92DB;" d="M1479.886,1222.975c0,0,6.998,19.834,16.754,30.969c9.753,11.136,52.664,33.238,57.345,42.751
					c3.379,6.87,4.669,29.946-65.976,1.602c-50.193-20.138-76.258-24.901-78.667-35.061c-2.409-10.16,30.174-57.187,30.174-57.187
					S1449.115,1214.864,1479.886,1222.975z"/>
			</g>
		</g>
		<g>
			<path style="fill:#8B92DB;" d="M1112.861,1327.055c0,0-10.474,36.846-13.377,49.291c-2.904,12.448,1.448,45.013-1.455,57.459
				c-2.904,12.445-10.117,16.021-15.912,14.353c-5.796-1.669-20.565-6.577-33.149-21.408c-12.582-14.831-7.649-42.204-9.166-59.688
				c-1.419-16.369-8.687-25.011,5.452-38.62c18.211-17.529,20.647-27.571,20.647-27.571L1112.861,1327.055z"/>
		</g>
		<g>
			<path style="fill:#E3E3E3;" d="M1369.267,812.376c0,0-6.398,71.897-12.775,114.95c-5.875,39.686-39.055,165.032-50.657,181.511
				c-21.119,29.992-69.26,80.062-79.238,93.232c-16.256,21.46-112.864,149.67-112.864,149.67s-27.099-6.001-62.583-39.668
				c0,0,100.785-114.098,115.816-147.856c11.418-25.646,60.787-99.535,60.548-111.422c-0.401-19.843,13.73-240.611,33.799-279.983
				C1281.381,733.44,1369.267,812.376,1369.267,812.376z"/>
		</g>
		<g>
			<path style="fill:#E3E3E3;" d="M1430.229,769.604c0,0,125.508,113.77,140.895,139.599s25.28,29.128,18.685,56.606
				c-6.598,27.477-102.201,249.148-103.869,256.096c-1.833,7.641-50.571-15.306-54.967-15.856
				c-4.397-0.549,20.501-66.871,29.845-93.801c9.339-26.928,38.038-118.962,45.733-132.701
				c7.691-13.737-154.704-97.822-171.738-118.156C1317.774,841.058,1342.297,746.706,1430.229,769.604z"/>
		</g>
		<path style="fill:#D88A51;" d="M1438.812,780.369c0,0-80.795,89.135-213.529,137.103l21.023-79.127L1438.812,780.369z"/>
		<g>
			<path style="fill:#EEA886;" d="M1546.933,323.094c12.744-27.033,47.476-153.32,47.476-153.32l-27.545-3.417
				c0,0-18.286,31.258-39.478,88.427c-6.324,17.059-32.138,48.75-33.4,51.651c-1.265,2.901-50.736,64.203-70.456,75.337
				c-9.216,5.206-29.189,18.561-42.034,34.748c-12.849,16.172-3.678,35.47-3.678,35.47c34.781,36.038,85.755-21.135,85.755-21.135
				S1523.771,372.24,1546.933,323.094z"/>
		</g>
		<path style="fill:#323657;" d="M1446.763,588.609c0,0-2.377,17.873-14.373,24.023l-10.335-19.583L1446.763,588.609z"/>
		<path style="fill:#323657;" d="M1267.701,668.595c-1.691,30.515-8.354,62.693-22.19,95.687c0,0-43.396,17.934-64.347-9.258
			c-8.252-10.705-15.446-46.692-18.486-92.59c-4.691-70.677,0.5-164.862,26.932-226.441
			C1189.61,435.993,1275.067,536.699,1267.701,668.595z"/>
		<path style="fill:#979FF0;" d="M1267.701,668.595c-1.691,30.515-8.354,62.693-22.19,95.687c0,0-43.396,17.934-64.347-9.258
			c-8.252-10.705-15.446-46.692-18.486-92.59L1267.701,668.595z"/>
		<path style="fill:#EEA886;" d="M1625.383,95.046c-2.359-0.146-14.339,20.867-19.334,29.827c-0.162-0.125-0.323-0.247-0.487-0.368
			c4.568-11.594,16.774-42.597,17.921-45.612c1.413-3.718-2.766-6.367-5.059-5.126c-2.142,1.159-17.486,33.651-23.026,45.491
			c-0.094-0.035-0.185-0.07-0.28-0.105c4.961-12.726,19.054-49,19.307-50.994c0.309-2.42-4.568-4.081-5.956-2.636
			c-1.984,2.072-19.131,38.909-24.59,50.694c-0.263-0.042-0.525-0.083-0.782-0.121c2.412-10.181,9.003-37.999,9.803-41.587
			c0.977-4.403-1.494-5.406-4.905-3.192c-3.063,1.989-13.374,39.644-15.442,47.294c-2.836,6.677-4.617,24.119-7.81,20.713
			c-3.615-3.857-16.94-24.7-22.29-22.52c-5.354,2.181,5.455,13.997,7.387,18.474c1.448,3.348,6.121,14.228,12.291,19.303
			c7.257,5.967,4.147,21.577,4.147,21.577l25.091,3.082c0,0,2.223-7.825,3.716-11.115c1.185-2.603,13.36-16.635,16.393-32.076
			c0.049-0.249,0.084-0.496,0.112-0.742h0.003c0,0,9.771-21.709,14.83-30.311C1631.483,96.397,1627.213,95.16,1625.383,95.046z"/>
		<g>
			<path style="fill:#EEA886;" d="M1003.619,804.596c0,0-22.581,42.429-21.596,46.373c0.985,3.947,3.478,4.897,5.763,1.007
				c2.285-3.888,23.066-40.432,23.066-40.432s-17.846,54.203-17.797,57.621c0.028,2.002,4.729,4.112,6.155,2.132
				c1.426-1.981,22.363-54.836,22.363-54.836s-16.565,50.634-15.615,53.458c0.833,2.471,5.693,3.381,7.194-0.302
				c1.502-3.683,19.688-49.935,19.688-49.935s-9.606,37.503-7.286,39.41c1.418,1.166,5.385,3.171,7.542-6.571
				c2.16-9.743,9.809-32.287,9.809-32.287L1003.619,804.596z"/>
		</g>
		<g>
			<g>
				<path style="fill:#EEA886;" d="M1037.593,759.455c0,0-8.363,13.541-17.739,12.962c-7.972-0.494-18.811,4.281-22.15,5.744
					c-4.466,1.958-20.428,3.238-18,8.481c2.427,5.243,26.388-0.924,31.661-1.282c5.274-0.359-9.006,17.62-8.912,22.765
					c0.093,5.145,32.567,24.851,40.873,11.486c8.309-13.364,7.92-32.551,9.871-34.642c1.951-2.091,6.449-9.51,6.449-9.51
					L1037.593,759.455z"/>
			</g>
		</g>
		<path style="fill:#D44040;" d="M1340.464,395.948c0,0,46.192,9.064,66.817-3.499c7.86,5.475,24.597,79.468,27.181,96.418
			c2.583,16.951,2.727,88.9-1.624,116.165c-4.35,27.265,20.965,152.297,9.616,172.314c0,0-94.435,82.368-206.493,79.837
			c0,0-0.912-156.139-9.227-191.966c-10.656-45.901-35.782-151.592-35.782-151.592s-11.702-70.82-0.085-76.575
			c25.063-12.415,91.962-36.804,91.962-36.804L1340.464,395.948z"/>
		<path style="fill:#EEA987;" d="M1353.036,408.893c0,0-15.335,8.815-70.207-8.649c0,0-2.37-36.082-16.248-68.531
			c-13.877-32.451,75.113,37.196,75.113,37.196c-0.782,0.688-0.586,4.058,0.4,8.684c0.834,3.921,2.229,8.742,4.073,13.588
			C1350.312,402.085,1349.414,400.165,1353.036,408.893z"/>
		<path style="fill:#A77860;" d="M1346.167,391.182c-52.988-3.167-63.942-31.934-64.108-32.385
			c23.033,23.924,59.923,18.265,59.923,18.265C1342.816,380.984,1344.324,386.335,1346.167,391.182z"/>
		<g>
			<path style="fill:#EEA886;" d="M1168.156,654.428c-20.197,22.031-111.731,126.119-111.731,126.119l-20.826-18.267
				c0,0,26.825-48.904,64.342-102.722c10.405-14.926,24.181-50.038,26.218-52.462c2.035-2.422,32.628-74.239,36.129-96.612
				c1.39-8.878,9.809-35.093,15.275-57.42c6.114-24.987,63.942-37.24,63.942-37.24c47.749,15.119-17.446,108.686-17.446,108.686
				S1196.464,623.551,1168.156,654.428z"/>
		</g>
		<path style="fill:#D44040;" d="M1226.105,535.16l-71.46-12.607c0,0,1.478-73.923,51.255-98.073
			c49.775-24.148,76.929-24.235,76.929-24.235L1226.105,535.16z"/>
		<g>
			<path style="fill:#323657;" d="M1223.421,653.322l-11.047-10.931c41.435-48.641,54.837-99.94,39.838-152.472
				c-11.222-39.302-38.951-68.556-39.187-68.807l15.166-6.537c1.069,1.129,26.706,28.157,38.96,71.078
				c7.234,25.336,8.396,50.943,3.452,76.104C1264.462,593.012,1248.07,624.387,1223.421,653.322z"/>
		</g>
		<path style="fill:#D44040;" d="M1436.803,371.345l33.336,64.648c0,0-26.37,21.178-35.731,76.074
			c-7.79,45.67-48.608-113.51-48.608-113.51S1404.343,396.883,1436.803,371.345z"/>
		<g>
			<path style="fill:#323657;" d="M1446.763,588.609l-12.704,6.505c6.443-82.34-4.568-122.598-13.999-150.814
				c-10.149-30.372-26.307-47.568-26.44-47.7l14.886-6.507C1410.895,392.434,1463.041,438.091,1446.763,588.609z"/>
		</g>
		<path style="fill:#EEA987;" d="M1359.325,398.446c0,0,52.247,69.257,8.484,85.981c-57.094,21.82-104.513-81.182-104.513-81.182
			S1296.228,389.745,1359.325,398.446z"/>
		<g>
			<path style="fill:#EEA886;" d="M1327.468,222.15c0,0,44.313,4.855,47.465,85.133c3.478,88.549-62.33,75.971-80.752,62.596
				c-18.425-13.373-36.678-45.989-41.889-71.995C1247.078,271.878,1240.021,200.59,1327.468,222.15z"/>
		</g>
		<g>
			<path style="fill:#323657;" d="M1371.981,273.014c0,0-6.398-28.686-41.218-16.589c-34.819,12.099-64.568,46.014-57.225,90.668
				c0,0-63.414-72.615-29.83-112.935C1277.291,193.838,1358.55,194.425,1371.981,273.014z"/>
		</g>
		<g>
			<path style="fill:#E8734D;" d="M1321.974,259.999c0,0,44.888,30.411,55.875,29.494
				C1377.85,289.493,1374.614,234.824,1321.974,259.999z"/>
		</g>
		<path style="fill:#EEA886;" d="M1277.283,306.679c-3.794-7.42-14.685-16.441-16.896-4.026
			c-2.211,12.416,13.979,37.095,18.283,32.507C1282.974,330.572,1284.27,320.341,1277.283,306.679z"/>
		<path style="fill:#323657;" d="M1213.026,421.113c0,0,6.493-5.436,15.166-6.537
			C1228.192,414.576,1219.414,421.197,1213.026,421.113z"/>
	</g>
	<g>
		<g>
			<g>
				<g>
					<path style="fill:#EEA886;" d="M2314.888,796.298c0,0,4.818,7.899,5.422,14.344c0.479,5.1,4.771,12.725,6.627,16.937
						c1.86,4.214,7.836,23.278,8.048,28.236c0.088,2.026-4.436,14.813-3.797,18.901c0.643,4.088,2.982,12.189-0.69,12.729
						c-3.673,0.539-7.832-6.104-7.832-6.104s-0.104,3.681-3.21,5.117c-6.044,2.797-8.763-0.269-8.763-0.269
						s-2.256,4.829-5.055,5.385c-6.167,1.228-9.109-1.553-9.109-1.553s-2.795,2.632-7.059,2.551
						c-5.449-0.106-7.505-5.396-7.505-5.396s-6.835,1.825-8.839-1.397c-2-3.222-1.956-6.503-2.786-9.421
						c-0.831-2.918-0.203-29.278,8.751-48.255c8.954-18.979-2.28-37.488-2.28-37.488L2314.888,796.298z"/>
				</g>
			</g>
		</g>
		<g>
			<g>
				<path style="fill:#DB9C7C;" d="M2323.635,878.87c0,0,0.615-23.649-5.609-28.686c-6.224-5.034-6.934,3.503-6.934,3.503
					s0.846-8.435-5.957-9.577c-6.803-1.138-7.086,8.883-7.086,8.883s-1.113-6.503-8.26-5.168c-7.146,1.336-5.445,9.637-5.445,9.637
					s-6.822-8.14-11.25-0.322c-7.473,13.204-0.271,28.794-0.271,28.794s2.108,3.575,8.907,1.824c0,0,4.551,9.162,14.723,2.575
					c0,0,10.415,5.732,14.212-3.456C2310.664,886.878,2322.146,892.331,2323.635,878.87z"/>
			</g>
		</g>
		<path style="fill:#323657;" d="M2395.114,455.621c0,0-40.484,134.934-54.166,184.707c-4.291,15.611-14.671,164.684-16.503,170.687
			c-1.832,6.004-53.188,14.224-53.188,14.224s6.224-186.489,6.803-196.661c0.583-10.17,56.66-218.428,72.973-225.857
			c12.216-5.565,18.667-0.962,34.064,10.469C2406.707,429.231,2395.114,455.621,2395.114,455.621z"/>
		<g>
			<path style="fill:#E55E5E;" d="M2884.483,205.703c-0.052-0.282-5.405-28.013-29.686-42.449
				c-18.429-10.956-43.052-11.577-73.176-1.844c-31.295,10.108-55.803,15.015-77.081,15.015c-45.926,0-76.797-22.854-128.384-65.557
				c-32.18-26.64-71.304-36.221-110.163-26.981c-42.344,10.068-77.723,41.201-97.068,85.416l-12.057-5.277
				c21.015-48.032,59.683-81.907,106.083-92.941c20.735-4.93,41.694-5.002,62.286-0.211c21.449,4.99,41.406,15.034,59.312,29.859
				c74.537,61.7,100.158,78.154,193.023,48.157c33.97-10.974,62.266-9.915,84.103,3.146c29.406,17.586,35.754,50.583,36.005,51.966
				L2884.483,205.703z"/>
		</g>
		<g>
			
				<rect x="2783.145" y="235.606" transform="matrix(0.8368 -0.5476 0.5476 0.8368 332.1212 1593.4647)" style="fill:#C73C3C;" width="110.756" height="8.226"/>
		</g>
		<path style="fill:#EFAA88;" d="M2896.99,240.822c0,0-0.882,5.242-2.387,7.346c0,0-3.034,3.617-5.035,6.317
			c-0.63,0.86-1.161,1.623-1.452,2.152c-1.218,2.207-3.237,7.419-7.657,11.898c-4.407,4.475-21.602,18.711-21.602,18.711
			l-14.727-12.5l-15.29-6.856c0,0,8.559-37.215,12.191-41.862c0.355-0.453,0.727-0.886,1.103-1.267
			c3.457-3.637,7.557-4.891,9.585-6.593c0.75-0.619,8.615-6.288,11.422-5.557c3.892,1.01,6.18,3.289,7.065,5.898
			c0,0,7.533,2.315,10.467,6.734c0,0,7.022,1.913,9.106,8.452C2889.78,233.696,2896.684,236.435,2896.99,240.822z"/>
		<g>
			<g>
				<path style="fill:#EAD8CF;" d="M2611.408,491.766l10.46-3.868c0,0-13.047-30.622-18.739-29.875
					c-6.56,0.858-14.747,3.022-14.747,3.022L2611.408,491.766z"/>
			</g>
		</g>
		<g>
			<g>
				<path style="fill:#DA9B5B;" d="M2613.796,497.05c-1.338-0.996-22.232-41.087-22.232-41.087l-44.652,6.068l24.129,47.484
					L2613.796,497.05z"/>
			</g>
		</g>
		<g>
			<g>
				<path style="fill:#424773;" d="M2362.263,1376.928c0,0-3.688,25.616-4.151,29.463c-0.459,3.848-41.052-2.266-41.052-2.266
					l-3.289-30.496C2313.771,1373.629,2357.188,1373.313,2362.263,1376.928z"/>
			</g>
		</g>
		<g>
			<g>
				<path style="fill:#292C47;" d="M2358.542,1403.135c0,0,12.862,15.434,25.302,22.162c12.44,6.729,31.985,9.394,39.343,16.356
					c5.31,5.028,19.338,26.67-32.324,26.234c-51.662-0.437-76.573,3.057-82.106-5.241c-5.537-8.298,8.008-61.247,8.008-61.247
					S2329,1405.802,2358.542,1403.135z"/>
			</g>
		</g>
		<g>
			<g>
				<path style="fill:#424773;" d="M2653.114,1376.928c0,0-3.692,25.616-4.151,29.463c-0.464,3.848-41.056-2.266-41.056-2.266
					l-3.285-30.496C2604.622,1373.629,2648.04,1373.313,2653.114,1376.928z"/>
			</g>
		</g>
		<g>
			<g>
				<path style="fill:#292C47;" d="M2649.394,1403.135c0,0,12.863,15.434,25.302,22.162c12.439,6.729,58.214,12.254,65.567,19.218
					c5.31,5.026,14.141,25.265-58.549,23.372c-51.646-1.345-76.573,3.057-82.11-5.241c-5.533-8.298,8.012-61.247,8.012-61.247
					S2619.142,1406.1,2649.394,1403.135z"/>
			</g>
		</g>
		<g>
			<g>
				<path style="fill:#292C47;" d="M2395.876,718.717c0,0-38.141,60.599-35.294,115.377c2.846,54.776-13.829,114.583-19.562,171.804
					c-6.388,63.792-32.528,214.814-33.475,248.94c-0.95,34.122,4.057,143.086,4.057,143.086l52.329,1.197
					c0,0,43.945-264.024,55.327-290.963c11.381-26.941,67.826-219.001,69.727-240.553
					C2490.882,846.055,2395.876,718.717,2395.876,718.717z"/>
			</g>
		</g>
		<g>
			<g>
				<path style="fill:#292C47;" d="M2596.662,726.927c0,0,28.743,150.135,32.535,183.663c3.797,33.526,6.328,162.244,8.224,183.199
					c1.896,20.955,17.722,273.572,22.764,305.333h-66.896c0,0-51.352-184.101-51.352-271.208
					c0-87.104-39.673-189.365-65.283-246.836c-25.609-57.473-84.23-58.832-99.972-165.462
					C2376.682,715.615,2575.348,693.108,2596.662,726.927z"/>
			</g>
		</g>
		<g>
			<g>
				<path style="fill:#EEA886;" d="M2459.523,209.234c0,0,51.195-19.122,74.801,19.849c23.605,38.969,21.33,116.988-4.476,126.581
					c-25.805,9.595-64.568,4.579-77.778-19.807c-13.215-24.384-25.143-59.639-24.567-83.198
					C2428.077,229.101,2446.082,216.035,2459.523,209.234z"/>
			</g>
		</g>
		<g>
			<g>
				<path style="fill:#EEA886;" d="M2524.292,357.448c0,0-2.128,13.823,1.393,20.632c3.521,6.81-66.325,6.986-66.325,6.986
					s-5.673-37.035-16.424-68.328C2432.189,285.446,2524.292,357.448,2524.292,357.448z"/>
			</g>
		</g>
		<g>
			<g>
				<path style="fill:#D88A51;" d="M2442.936,316.738c0,0,4.822,7.955,24.5,4.869c19.678-3.086,43.686-29.267,51.902-32.141
					c8.216-2.874,8.295-7.701,8.295-7.701l5.143,7.513l8.727,0.551c0,0-7.961-23.418,4.048-32.969
					c12.009-9.551-12.463-75.803-75.571-53.746c0,0-48.473,13.359-46.708,40.927
					C2425.031,271.609,2432.094,303.012,2442.936,316.738z"/>
			</g>
		</g>
		<g>
			<g>
				<path style="fill:#E2D2CA;" d="M2529.829,377.261c0,0-0.22-13.01-6.116-14.258c-5.896-1.248-65.092-6.939-72.329-4.092v15.154
					C2451.384,374.065,2465.332,382.648,2529.829,377.261z"/>
			</g>
		</g>
		<g>
			<g>
				<path style="fill:#EEA886;" d="M2526.328,271.739c-1.103-4.623-12.863-17.837-17.362-3.691
					c-4.503,14.148,6.803,33.179,13.106,31.55C2528.376,297.969,2529.126,283.462,2526.328,271.739z"/>
			</g>
		</g>
		<g>
			<g>
				<path style="fill:#323657;" d="M2627.736,396.958c-40.588-5.348-97.907-19.699-97.907-19.699l-78.445-3.196
					c0,0-71.999,15.849-100.351,28.656c-2.691,1.214-2.703,64.229-10.085,80.753l23.51,49.595c0,0,13.578,98.241,16.396,141.933
					c1.294,20.059-28.004,188.082-28.004,188.082s31.394,9.244,84.933,15.144c53.538,5.9,187.312-2.134,188.153-8.456
					c0.847-6.328-25.904-235.464-27.091-247.331c-1.816-18.214,6.28-114.992,6.28-114.992
					c12.359-9.589,120.898-59.968,150.508-86.224c7.924-7.026,41.366-39.597,50.876-50.84c33.665-39.81,61.268-73.962,64.624-81.322
					c3.816-4.192-36.579-26.149-40.244-27.37c-3.206-1.072-48.717,57.898-66.233,76.872c-7.81,8.46-40.277,32.077-40.277,32.077
					S2653.123,398.418,2627.736,396.958z"/>
			</g>
		</g>
		<g>
			<g>
				<path style="fill:#D88A51;" d="M2444.944,213.833c0,0-65.28,5.108-2.009,102.905L2444.944,213.833z"/>
			</g>
		</g>
		<polygon style="fill:#C73C3C;" points="2887.11,212.831 2892.463,204.661 2882.603,205.948 		"/>
	</g>
	<g>
		<path style="fill:#EEA886;" d="M169.685,1261.333l-7.201,17.43c0,0-22.926-5.493-27.095-17.43l7.959-14.21L169.685,1261.333z"/>
		<polygon style="fill:#EEA886;" points="509.796,1323.576 514.058,1343.472 484.215,1353.417 475.406,1330.682 		"/>
		<g>
			<path style="fill:#494F80;" d="M343.343,844.361c2.221,7.605,15.061,39.151,29.415,74.193v0.007
				c13.09,31.949,27.439,66.796,36.152,89.075c3.253,8.311,5.721,14.872,7.047,18.873c8.772,26.498,4.736,69.489,5.175,105.11
				c0.432,35.627,52.851,205.059,52.851,205.059c9.344,3.479,38.913-10.168,38.913-10.168
				c-4.111-18.741-24.626-227.221-22.128-241.319c2.499-14.101,1.819-52.729-2.987-67.455c-0.983-3.026-1.671-7.065-2.145-11.957
				c-1.822-18.926-0.429-50.569-0.797-85.117c-0.46-43.479-25.885-149.631-29.054-159.046c-0.292-0.871-0.742-2.082-1.313-3.578
				c-5.63-14.717-23.303-56.38-23.303-56.38c-29.577-6.281-51.453-6.092-67.425-1.479c-21.143,6.096-31.939,19.945-36.532,36.797
				C316.217,777.191,340.465,834.489,343.343,844.361z"/>
		</g>
		<g>
			<path style="fill:#494F80;" d="M139.368,1247.691l32.589,20.084c18.949-23.496,131.186-166.201,140.242-184.079
				c9.057-17.874,20.3-53.095,21.593-66.285c0.232-2.357,0.79-6.314,1.631-11.438c3.24-19.868,10.598-57.217,18.725-86.053
				c1.513-5.38,3.055-10.463,4.603-15.08c8.292-24.744,17.777-111.125,22.831-161.978c2.249-22.632,3.623-38.223,3.623-38.223
				s-0.466-0.451-1.336-1.254c-10.125-9.344-81.653-87.801-110.729-43.042c-7.68,11.822-17.941,36.296-21.869,49.992
				c-12.037,41.965-23.222,89.949-13.211,133.327c11.092,48.061,17.61,64.503,24.905,131.068
				c2.376,21.684-4.398,51.531-10.127,59.561c-16.145,22.632-31.616,41.616-67.8,123.509
				C173.264,1184.436,139.368,1247.691,139.368,1247.691z"/>
		</g>
		<g>
			<g>
				<g>
					<path style="fill:#E8734D;" d="M395.148,157.041c0,0,41.581,20.338,31.3,75.669c-10.28,55.331-14.83,62.785-3.331,84.405
						c11.5,21.62,25.07,113.846,14.719,131.327c-10.349,17.478-128.105-76.819-144.435-155.936
						c-16.331-79.12,10.349-114.306,19.779-127.416C322.611,151.98,358.44,138.409,395.148,157.041z"/>
				</g>
			</g>
		</g>
		<g>
			<polygon style="fill:#51578C;" points="420.346,316.839 353.782,257.147 392.003,225.215 452.002,288.054 			"/>
		</g>
		<g>
			<polygon style="fill:#3E3B42;" points="418.52,310.639 360.913,258.98 393.992,231.341 445.917,285.724 			"/>
		</g>
		<g>
			<path style="fill:#E3A080;" d="M458.284,317.989c0,0-10.056-2.33-7.034-13.681c3.021-11.355-1.608-13.991-1.608-13.991
				l-35.224,31.889c0,0,16.963,15.564,22.128,16.207C441.712,339.054,463.451,324.209,458.284,317.989z"/>
		</g>
		<g>
			<path style="fill:#E3A080;" d="M414.418,322.206c0,0-21.275-12.979-23.277-14.915c-2.003-1.934-11.509-10.578-15.395-15.689
				c-3.887-5.111,12.762-5.474,17.254-0.165c4.492,5.309,9.32,6.294,12.446,7.478c3.127,1.184,20.171,4.546,23.891,9.788
				C433.058,313.944,414.418,322.206,414.418,322.206z"/>
		</g>
		<g>
			<path style="fill:#E3A080;" d="M443.076,283.39c0,0-2.56,3.141-4.583-0.518c-2.022-3.661-1.821-12.064,3.355-10.02
				C447.026,274.9,443.076,283.39,443.076,283.39z"/>
		</g>
		<g>
			<path style="fill:#E3A080;" d="M436.556,272.231c0,0-0.921,6.21-4.127,3.399c-3.208-2.811-6.383-13.234-0.778-12.942
				C437.255,262.978,436.556,272.231,436.556,272.231z"/>
		</g>
		<g>
			<path style="fill:#E3A080;" d="M427.427,263.125c0,0-0.017,7.498-3.737,5.323c-2.803-1.638-6.772-15.154-1.169-14.865
				C428.126,253.876,427.427,263.125,427.427,263.125z"/>
		</g>
		<g>
			<path style="fill:#FFCA55;" d="M533.067,450.25c-15.701-0.306-33.116-1.762-50.829-4.422c-5.913-0.878-11.858-1.899-17.78-3.07
				c-28.24-5.49-56.037-14.108-77.728-26.115c-60.516-33.469-29.673-79.069-10.436-73.268
				c19.088,5.763,101.838,41.595,103.136,42.154l-52.103-49.034l32.548-29.215l101.647,94.324
				C581.327,415.211,549.551,450.57,533.067,450.25z"/>
		</g>
		<path style="fill:#C49C41;" d="M482.239,445.829c-5.913-0.878-11.858-1.899-17.78-3.07l-28.582-60.209
			C435.876,382.549,474.836,405.275,482.239,445.829z"/>
		<path style="fill:#323657;" d="M307.26,597.347c-6.671,29.272-18.431,59.338-37.273,89.015c0,0-44.986,10.211-60.793-19.579
			c-6.229-11.732-7.261-47.769-2.634-92.727c7.113-69.224,27.672-159.587,63.427-214.867
			C269.987,359.188,336.145,470.814,307.26,597.347z"/>
		<path style="fill:#323657;" d="M307.26,597.347c-6.671,29.272-18.431,59.338-37.273,89.015c0,0-44.986,10.211-60.793-19.579
			c-6.229-11.732-7.261-47.769-2.634-92.727L307.26,597.347z"/>
		<g>
			<path style="fill:#EDDAD3;" d="M374.245,342.86c0,0,26.933,12.716,36.283,14.586c9.351,1.873,45.632,49,51.992,66.208
				c6.358,17.205,0,43.015-13.091,73.309c-13.091,30.298-0.748,40.399-6.733,70.697c-5.985,30.295-5.98,112.891-4.858,129.723
				c1.123,16.832-164.066,58.892-198.853,28.22c0,0,23.184-81.14,42.152-122.242c3.656-7.918,5.583-43.183,1.469-53.656
				c-4.115-10.474-50.496-88.648-50.496-88.648s-9.586-77.99,10.65-93.706c17.58-13.651,71.673-19.821,80.276-22.814
				C331.641,341.545,356.665,340.241,374.245,342.86z"/>
		</g>
		<g>
			<path style="fill:#FFCA55;" d="M449.429,496.96c-13.088,30.298-0.748,40.402-6.733,70.7
				c-5.986,30.298-5.975,112.895-4.858,129.723c1.128,16.829-164.066,58.898-198.853,28.22c0,0,9.053-31.687,20.475-65.492
				c1.412-4.173,2.856-8.389,4.332-12.572c5.669-16.146,11.697-31.932,17.345-44.178c3.656-7.921,5.584-43.183,1.464-53.656
				c-4.109-10.477-50.488-88.648-50.488-88.648s-9.589-77.99,10.644-93.702c6.913-5.366,19.465-9.579,32.679-12.901
				c4.963-1.241,10.032-2.36,14.922-3.359c15.196-3.141,28.727-5.185,32.679-6.557c8.598-2.993,33.627-4.297,51.214-1.674
				c0,0,26.926,12.71,36.273,14.586c9.357,1.863,45.641,48.999,51.994,66.198C468.882,440.856,462.517,466.665,449.429,496.96z"/>
		</g>
		<g>
			<path style="fill:#EEA886;" d="M376.499,310.918c0,0-6.822,36.378,10.232,61.807c0,0-31.865,32.591-63.695-28.187
				c0,0,13.394-25.049,3.314-59.184C316.27,251.22,376.499,310.918,376.499,310.918z"/>
		</g>
		<path style="fill:#EEA886;" d="M301.563,348.892c0,0,33.846,54.951,72.077,52.638c52.923-3.204,24.999-49.867,24.999-49.867
			s-19.853-7.915-23.562-8.631c-3.707-0.712-51.697,0.817-51.697,0.817L301.563,348.892z"/>
		<path style="fill:#323657;" d="M375.146,573.319c-5.237,31.307-19.137,54.652-41.34,69.372
			c-21.319,14.142-46.25,17.652-65.757,17.652c-3.003,0-5.88-0.084-8.589-0.232c1.412-4.173,2.856-8.389,4.332-12.572
			c18.24,0.504,42.888-2.014,63.091-15.43c19.115-12.706,31.161-33.193,35.787-60.878c9.874-59.097-0.97-112.901-32.205-159.923
			c-23.415-35.241-54.756-56.672-55.03-56.854c0,0,4.858-2.528,14.912-3.369c0,0,0.01,0,0.01,0.01
			c1.254,0.831,25.544,15.648,50.319,52.742C363.586,438.139,388.162,495.38,375.146,573.319z"/>
		<g>
			<g>
				<g>
					<g>
						<g>
							<path style="fill:#EEA886;" d="M383.881,612.147c0,0-4.84,1.557-7.288,1.207c0,0-4.405-0.982-7.579-1.493
								c-1.009-0.155-1.89-0.273-2.466-0.286c-2.413-0.064-7.723,0.518-13.473-1.261c-5.741-1.775-28.546-15.81-28.546-15.81
								l4.085-14.479l1.893-14.102c0,0,35.752-8.833,41.296-7.797c0.542,0.104,1.071,0.225,1.56,0.38
								c4.61,1.331,7.478,4.26,9.818,5.232c0.855,0.363,9.13,4.546,9.744,7.249c0.858,3.75-0.07,6.694-1.895,8.598
								c0,0,1.352,7.414-1.109,11.852c0,0,1.467,6.802-3.166,11.449C386.756,602.887,387.471,609.955,383.881,612.147z"/>
						</g>
					</g>
				</g>
			</g>
		</g>
		<g>
			<path style="fill:#FFCA55;" d="M280.773,359.181c0,0-35.29-6.096-54.563,25.301c-22.055,35.931-21.688,52.46-25.09,70.589
				c-3.213,17.122-13.754,44.689-15.09,49.498c-1.335,4.808-26.936,53.801-16.334,74.557
				c10.658,20.863,156.832,23.217,158.02,27.611c0.756,2.794,7.691-43.684,7.691-43.684s-49.265-7.377-64.546-8.691
				c-18.252-1.574-35.039-12.044-32.648-20.971c5.266-19.663,17.484-47.181,22.39-56.511
				C265.508,467.549,308.824,372.59,280.773,359.181z"/>
		</g>
		<path style="fill:#213A70;" d="M493.561,1348.256c0,0,10.99-9.774,16.478-10.931c5.489-1.153,10.687-0.864,12.997,1.735
			c2.312,2.599,8.974,12.995,12.575,16.173c3.602,3.177,29.307,28.019,35.372,29.75c6.066,1.734,32.349,0.289,30.905,15.598
			c-1.444,15.309-22.817,21.952-60.944,18.486c-38.125-3.467-33.504-12.421-54.878-17.04c-21.373-4.624-22.817-15.31-19.063-28.309
			c3.756-12.998,15.49-25.321,13.927-28.785C479.365,1341.468,493.561,1348.256,493.561,1348.256z"/>
		<path style="fill:#213A70;" d="M142.924,1267.13c0,0,13.369-0.081,20.657,3.493c7.286,3.57,4.467,7.753,5.087,11.338
			c0.621,3.58,6.264,37.826,8.898,44.712c2.634,6.887,17.318,19.472,9.622,30.311c-7.695,10.837-31.245,6.032-56.156-9.219
			c-24.914-15.252-26.887-45.634-28.639-53.078c-1.751-7.444,28.476-36.771,33.831-37.394
			C141.577,1256.673,142.924,1267.13,142.924,1267.13z"/>
		<g>
			<g>
				<g>
					<path style="fill:#EEA987;" d="M389.12,163.173c0,0,60.373,18.977,27.598,123.163
						c-32.773,104.186-115.226-12.074-106.602-75.552C318.741,147.306,389.12,163.173,389.12,163.173z"/>
				</g>
			</g>
		</g>
		<g>
			<g>
				<g>
					<path style="fill:#E8734D;" d="M422.888,223.968c0,0-29.999,29.437-80.203,33.119c0,0-19.293,22.622-20.775,31.502
						c0,0-44.793-76.352,10.269-122.121C387.239,120.7,443.127,205.108,422.888,223.968z"/>
				</g>
			</g>
		</g>
		<g>
			<g>
				<g>
					<path style="fill:#EEA987;" d="M343.694,259.158c-0.388-7.582-5.058-24.838-16.329-20.01
						c-11.269,4.832,0.691,39.972,8.165,37.81C335.531,276.958,344.616,277.1,343.694,259.158z"/>
				</g>
			</g>
		</g>
	</g>
	<g>
		<g>
			<path style="fill:#D44040;" d="M2033.145,1043.778l-34.458,123.619c-1.179,4.007-2.587,8.942-4.086,14.678l-0.059,0.216
				c-0.018,0.049-0.031,0.098-0.042,0.153c-5.749,22.027-12.865,55.622-14.979,92.942c-1.44,25.438,3.279,127.706,3.279,127.706
				s-52.144,19.457-130.162,14.532c0,0-74.993,16.892-68.149-34.556c18.108-136.186-8.526-211.195-10.898-224.864
				c0,0-11.39-66.143-19.544-121.56c23.615-8.792,124.489-42.708,124.489-42.708l52.259,3.91
				C1930.794,997.846,2010.203,1017.396,2033.145,1043.778z"/>
		</g>
		<g>
			<path style="fill:#EEA987;" d="M1904.75,819.185c0,0,51.003,8.604,42.353,88.459c-8.653,79.855-53.674,72.811-56.687,72.696
				c-3.014-0.115-45.284,0.963-47.516-96.674C1842.9,883.667,1842.25,811.481,1904.75,819.185z"/>
		</g>
		<g>
			<path style="fill:#EEA987;" d="M1927.097,957.19c0,0-1.76,32.865,1.343,40.019c3.105,7.151-40.955,29.783-68.332,4.003
				c0,0,5.536-35.922,3.816-48.606C1862.203,939.921,1927.097,957.19,1927.097,957.19z"/>
		</g>
		<g>
			<path style="fill:#EEA987;" d="M1948.14,885.071c0,0,5.659-5.913,7.644,0.157c1.986,6.073-9.04,32.99-8.354,34.207
				c0,0-1.047,2.338-2.375,1.03C1943.725,919.161,1948.14,885.071,1948.14,885.071z"/>
		</g>
		<g>
			<path style="fill:#EEA987;" d="M1843.486,882.918c0,0-5.412-6.142-7.647-0.156c-2.233,5.985,5.923,32.861,6.939,34.523
				c0,0,1.757,2.758,3.139,1.506C1847.299,917.539,1843.486,882.918,1843.486,882.918z"/>
		</g>
		<g>
			<path style="fill:#252E3B;" d="M1951.402,878.286c-1.761,10.928-3.42,19.046-3.42,19.046l-7.426,9.697
				c0,0,0.442-21.436-0.691-24.802c-0.432-1.276-0.936-3.538-1.454-5.986c-0.853-4.038-1.726-8.598-2.323-10.118
				c-0.957-2.427-43.717-14.914-81.802,2.619c0,0,0.323,3.297,0.299,6.977c-0.013,4.278-0.481,9.071-2.445,9.794
				c-3.652,1.335-2.127,25.088-2.127,25.088l-5.935-6.852c0,0-1.718-12.41-3.406-26.67c0,0-0.009-0.035-0.016-0.101
				c-0.383-3.325-0.772-6.747-1.145-10.138c-0.852-14.348,0.567-40.392,19.246-55.692c12.601-5.394,32.727-9.982,66.274,0.289
				c0,0,7.689,0.512,9.846,2.591C1955.771,837.018,1951.402,878.286,1951.402,878.286z"/>
		</g>
		<path style="fill:#C78D71;" d="M1867.423,969.667c0,0,8.142,11.304,27.056,10.876c18.914-0.428,27.123-10.288,27.123-10.288
			s-8.953,18.73-27.213,18.531C1876.128,988.584,1867.423,969.667,1867.423,969.667z"/>
		<path style="fill:#EEA987;" d="M1854.908,1001.905c0,0,13.575,25.971,39.605,26.041c26.075,0.066,36.249-18.671,37.373-29.825
			C1931.887,998.121,1895.042,982.508,1854.908,1001.905z"/>
		<g>
			<path style="fill:#D44040;" d="M1976.527,1278.159c0,0-6.694,25.974,21.882,35.56c0,0,108.9-77.009,110.1-88.146
				c1.106-10.31-58.304-173.113-80-186.396l-21.397,93.997c2.612-0.759,39.543,54.964,39.71,66.341
				C2047.047,1214.767,1976.527,1278.159,1976.527,1278.159z"/>
		</g>
		<g>
			<path style="fill:#D44040;" d="M1799.629,1284.826c0,0,6.691,25.972-21.883,35.557c0,0-128.343-97.544-129.541-108.681
				c-1.107-10.309,84.143-161.774,105.841-175.058l22.787,100.386c-2.612-0.762-51.212,56.408-51.379,67.785
				C1725.229,1220.063,1799.629,1284.826,1799.629,1284.826z"/>
		</g>
		<path style="fill:#3F446E;" d="M1704.067,1838.193c0,0-13.606,11.926-25.823,30.248c-12.217,18.327-44.648,19.301-46.035,44.312
			c-1.388,25.015,44.092,25.787,67.972,17.645c23.879-8.146,27.487-32.579,41.927-38.687c14.438-6.107,21.934-11.051,20.824-22.977
			c-1.111-11.927-9.102-31.286-9.102-31.286s-8.97,2.866-14.246,3.447C1734.309,1841.475,1716.563,1841.684,1704.067,1838.193z"/>
		<rect x="1534.185" y="1480.335" style="fill:#EDDAD3;" width="705.313" height="357.113"/>
		<g>
			<path style="fill:#3F446E;" d="M2040.101,1823.293c0,0,12.527,13.853,19.936,22.249c7.409,8.4,35.783,23.407,35.937,48.35
				c0.167,27.046-20.932,24.674-39.703,23.686c-18.771-0.987-34.026-13.954-41.929-29.269
				c-7.905-15.314-28.931-19.338-30.416-31.685c-1.481-12.351,9.749-34.579,9.749-34.579L2040.101,1823.293z"/>
		</g>
		<path style="fill:#EEA886;" d="M1996.096,1799.022l-2.421,23.021c0,0,39.182,17.074,46.427,1.249l-1.684-20.504L1996.096,1799.022
			z"/>
		<path style="fill:#EEA886;" d="M1706.203,1821.529l-2.136,16.664c0,0,23.677,8.364,49.763-0.745l0.531-14.816L1706.203,1821.529z"
			/>
		<path style="fill:#292C47;" d="M2000.443,1391.876c0,0,76.168,62.186,76.654,96.573c0.483,34.389-12.705,129.745-13.672,148.635
			c-0.971,18.887-18.73,176.31-18.73,176.31s-13.728,12.754-54.895-3.231c0,0-9.089-149.288-10.056-165.27
			c-0.971-15.986-0.971-89.604-10.174-100.261c-9.203-10.653-64.901-44.075-72.167-50.37
			c-7.266-6.299-133.833,23.916-147.094,27.351c-34.342,8.908-18.689,68.658-11.092,95.447
			c12.711,44.815,23.82,206.666,23.82,206.666s-24.46,10.421-65.431,1.614c0,0-80.451-292.235-83.033-321.299
			c-2.584-29.063-8.802-71.917,189.457-108.344L2000.443,1391.876z"/>
		<rect x="1864.174" y="1171.892" style="fill:#D4C1BB;" width="36.305" height="220.684"/>
		<polygon style="fill:#D4C1BB;" points="2048.797,1148.47 2048.797,1372.736 1900.479,1400.526 1900.479,1171.896 
			2044.24,1144.953 		"/>
		<rect x="1864.174" y="1171.892" style="fill:#D4C1BB;" width="36.305" height="228.635"/>
		<polygon style="fill:#D44040;" points="2048.797,1385.167 1900.479,1413.938 1900.479,1177.244 2048.797,1148.474 		"/>
		<polygon style="fill:#D4C1BB;" points="1715.933,1148.47 1715.933,1372.736 1864.25,1400.526 1864.25,1171.896 1720.487,1144.953 
					"/>
		<polygon style="fill:#548AD1;" points="1715.933,1385.167 1864.25,1413.938 1864.25,1177.244 1715.933,1148.474 		"/>
		<rect x="1864.174" y="1177.237" style="fill:#426CA3;" width="36.305" height="236.693"/>
		<path style="fill:#EEA886;" d="M1731.16,1220.112c0,0-28.712,0.407-34.211,15.648c-5.499,15.237-1.645,32.165,2.461,39.41
			c4.105,7.245,16.107,25.54,24.273,19.147C1749.887,1273.801,1731.16,1220.112,1731.16,1220.112z"/>
		<path style="fill:#EEA886;" d="M1704.361,1227.052c0,0-0.744-19.29,7.38-17.976c8.124,1.318,4.483,15.065,4.483,15.065
			L1704.361,1227.052z"/>
		<polygon style="fill:#D4C1BB;" points="1885.355,1173.54 2004.443,1122.749 2012.238,1125.243 1893.397,1176.448 		"/>
		<polygon style="fill:#BDABA6;" points="2012.238,1125.243 2012.238,1152.728 1900.479,1173.397 		"/>
		<polygon style="fill:#D4C1BB;" points="2048.797,1148.47 2048.797,1372.736 1900.479,1400.526 1900.479,1171.896 
			2044.24,1144.953 		"/>
		<polygon style="fill:#548AD1;" points="2048.797,1385.167 1900.479,1413.938 1900.479,1177.244 2048.797,1148.474 		"/>
		<polygon style="fill:#5F9DED;" points="2008.363,1287.474 1946.675,1299.82 1946.675,1241.844 2008.363,1229.496 		"/>
		<path style="fill:#EEA886;" d="M2034.057,1218.453c0,0,28.688-1.186,35.024,13.725c6.337,14.911,3.43,32.023-0.268,39.484
			c-3.697,7.464-14.664,26.396-23.172,20.465C2018.338,1273.099,2034.057,1218.453,2034.057,1218.453z"/>
		<path style="fill:#EEA886;" d="M2053.947,1223.148c0,0-0.327-19.304-8.365-17.536c-8.037,1.767-3.641,15.29-3.641,15.29
			L2053.947,1223.148z"/>
		<path style="fill:#D4C1BB;" d="M1731.448,1147.009c0,0,58.185-18.872,145.178,24.876l-15.591,3.214L1731.448,1147.009z"/>
		<path style="fill:#252E3B;" d="M1925.031,811.436c0,0,19.217-4.702,25.383,12.887c9.461,26.969-2.432,73.009-2.432,73.009
			L1925.031,811.436z"/>
	</g>
</g>
</svg>
